<?xml version="1.0" standalone="no"?>
<!DOCTYPE svg PUBLIC "-//W3C//DTD SVG 20010904//EN"
 "http://www.w3.org/TR/2001/REC-SVG-20010904/DTD/svg10.dtd">
<svg version="1.0" xmlns="http://www.w3.org/2000/svg"
 width="256.000000pt" height="256.000000pt" viewBox="0 0 256.000000 256.000000"
 preserveAspectRatio="xMidYMid meet">

<g transform="translate(0.000000,256.000000) scale(0.100000,-0.100000)"
fill="#000000" stroke="none">
<path d="M420 2151 c-102 -107 -162 -264 -162 -426 -1 -183 58 -323 192 -457
58 -59 95 -88 110 -88 18 0 21 4 17 23 -30 128 -37 173 -37 242 0 156 50 299
148 427 l52 67 0 130 c0 108 -3 130 -16 135 -9 3 -68 6 -132 6 l-116 0 -56
-59z"/>
<path d="M1228 2033 c-4 -184 -12 -216 -75 -275 -33 -31 -108 -67 -140 -68
-13 0 -23 -6 -24 -12 -5 -58 36 -144 88 -184 101 -77 251 -67 334 23 54 58 63
88 67 231 l4 132 43 0 c62 0 69 14 44 91 -25 74 -50 127 -91 187 l-29 42 -109
0 -108 0 -4 -167z"/>
<path d="M1966 2182 c-3 -5 6 -44 20 -87 167 -526 -74 -1096 -568 -1346 -258
-130 -574 -155 -848 -65 -41 13 -78 22 -82 19 -19 -11 -4 -34 45 -76 331 -279
778 -331 1172 -137 605 299 778 1091 354 1625 -55 69 -80 88 -93 67z"/>
</g>
</svg>
